<svg width="40" height="41" viewBox="0 0 40 41" fill="none" xmlns="http://www.w3.org/2000/svg">
<rect y="0.5" width="40" height="40" rx="12" fill="#1E1E1E"/>
<path d="M20 20.9166C20 19.7011 20.4829 18.5353 21.3424 17.6757C22.202 16.8162 23.3678 16.3333 24.5833 16.3333C25.7989 16.3333 26.9647 16.8162 27.8242 17.6757C28.6838 18.5353 29.1667 19.7011 29.1667 20.9166C29.1667 22.1322 28.6838 23.298 27.8242 24.1576C26.9647 25.0171 25.7989 25.5 24.5833 25.5C23.3678 25.5 22.202 25.0171 21.3424 24.1576C20.4829 23.298 20 22.1322 20 20.9166V20.9166Z" fill="#1ABCFE"/>
<path d="M10.8333 30.0833C10.8333 28.8678 11.3162 27.702 12.1758 26.8424C13.0353 25.9829 14.2011 25.5 15.4167 25.5H20V30.0833C20 31.2989 19.5171 32.4647 18.6576 33.3242C17.798 34.1838 16.6322 34.6667 15.4167 34.6667C14.2011 34.6667 13.0353 34.1838 12.1758 33.3242C11.3162 32.4647 10.8333 31.2989 10.8333 30.0833V30.0833Z" fill="#0ACF83"/>
<path d="M20 7.16666V16.3333H24.5833C25.7989 16.3333 26.9647 15.8504 27.8242 14.9909C28.6838 14.1314 29.1667 12.9656 29.1667 11.75C29.1667 10.5344 28.6838 9.36863 27.8242 8.50908C26.9647 7.64954 25.7989 7.16666 24.5833 7.16666H20Z" fill="#FF7262"/>
<path d="M10.8333 11.75C10.8333 12.9656 11.3162 14.1314 12.1758 14.9909C13.0353 15.8504 14.2011 16.3333 15.4167 16.3333H20V7.16666H15.4167C14.2011 7.16666 13.0353 7.64954 12.1758 8.50908C11.3162 9.36863 10.8333 10.5344 10.8333 11.75V11.75Z" fill="#F24E1E"/>
<path d="M10.8333 20.9166C10.8333 22.1322 11.3162 23.298 12.1758 24.1576C13.0353 25.0171 14.2011 25.5 15.4167 25.5H20V16.3333H15.4167C14.2011 16.3333 13.0353 16.8162 12.1758 17.6757C11.3162 18.5353 10.8333 19.7011 10.8333 20.9166V20.9166Z" fill="#A259FF"/>
</svg>
